<svg xmlns="http://www.w3.org/2000/svg" viewBox="0 0 129.4 29.6"><path fill="#7CC791" d="M54.5 14.5c0 6-1.6 8.4-7.3 8.4-2 0-5-.3-5-.3V0H44v7.7s2.4-1.1 4.9-1.1c4.3 0 5.6 2.3 5.6 7.9m-1.9 0c0-4.3-.8-6.1-3.7-6.1-2.3 0-4.8 1-4.8 1V21s2.2.2 3.1.2c4.6 0 5.4-2.1 5.4-6.7m16.9 5.3c.1 1 1 1.3 2 1.4l-.1 1.6c-1.7 0-2.7-.3-3.5-1.2 0 0-2.8 1.2-6 1.2-2.6 0-4.1-1.7-4.1-4.7 0-2.9 1.4-4.3 4.6-4.6l5.3-.5v-1.4c0-2.3-1.1-3.2-3-3.2-2.3 0-5.9.5-5.9.5l-.1-1.7s3.7-.6 6.1-.6c3.3 0 4.8 1.6 4.8 5v8.2zm-6.9-4.7c-2.1.2-2.9 1.3-2.9 3 0 2 .9 3.1 2.4 3.1 2.7 0 5.5-1.1 5.5-1.1v-5.5l-5 .5zm12.6-8.2l4.2 13.9h1.1l4.2-13.9h1.9l-6.7 22.7H78l2.1-7h-2.2L73.3 6.9zm14 0h11.6v1.7l-9.3 12.3h9.3v1.7H89.2v-1.7l9.3-12.3h-9.3zm26.7 12.9c.1 1 1 1.3 2 1.4l-.1 1.6c-1.7 0-2.7-.3-3.5-1.2 0 0-2.8 1.2-6 1.2-2.6 0-4.1-1.7-4.1-4.7 0-2.9 1.4-4.3 4.6-4.6l5.2-.5v-1.4c0-2.3-1.1-3.2-3-3.2-2.3 0-5.9.5-5.9.5l-.1-1.7s3.7-.6 6.1-.6c3.3 0 4.8 1.6 4.8 5v8.2zm-7-4.7c-2.1.2-2.9 1.3-2.9 3 0 2 .9 3.1 2.4 3.1 2.7 0 5.5-1.1 5.5-1.1v-5.5l-5 .5zm15-6.4v7.6c0 3.9.2 4.9 2.5 4.9.9 0 2.9-.2 2.9-.2l.1 1.7s-2.1.3-3.2.3c-3.1 0-4.2-1.2-4.2-5.7V8.7h-2.3V6.9h2.3V2h1.9v4.9h5.2v1.7h-5.2zM19.4 12.2c-.6 1-1.1 2.3-1.6 3.7-1.2 3.3-2.2 4.2-2.5 4.5h-.2c-.7 0-1.3.4-1.6 1.1-.2.4-.1.9.1 1.3s.5.7.9.8c.2.1.5.1.8.1 1.2 0 3.4-.9 5.6-6.8.1-.2.1-.4.2-.5-.3-.6-.6-1.4-.8-2.1-.4-.7-.7-1.4-.9-2.1zm16 8.2c-.7-.3-2.1-1.4-3.4-5.1-2.5-6.9-5.7-7.4-6.6-7.5H25c-.9 0-1.8.2-2.6.8.5.9 1 1.9 1.5 3.1.4-.4.9-.6 1.3-.5h.2c.7.2 2.1 1.5 3.5 5.2.6 1.9 1.4 3.2 2.1 4.3 1.9 2.7 3.9 3.1 4.7 3.1l-.3-3.4z"/><path fill="#127141" d="M31.1 22c-.1-.9-.9-1.6-1.8-1.5-.1 0-3-.3-5.5-7.4-.1-.4-.3-.7-.4-1-3.1-7.9-6.8-8.5-7.9-8.5H15c-3.7 0-6.6 3.2-9.2 10.5-1.9 5.1-3.4 6.2-3.8 6.4h-.4c-.7 0-1.3.4-1.6 1.1-.3.9.1 1.8 1 2.1.3.1.6.2.9.2 1.4 0 4.1-1.1 6.9-8.7 2-5.5 4.1-8.3 6.1-8.3h.7c.6.2 2.9 1.2 5.1 7.3.2.6.4 1.1.6 1.6 3.2 7.6 7.3 8 8.1 8h.2c.9-.1 1.6-.9 1.5-1.8z"/></svg>